<svg xmlns="http://www.w3.org/2000/svg" viewBox="0 0 64 64" role="img" aria-label="CK">
  <defs>
    <linearGradient id="g" x1="0" x2="1" y1="0" y2="1">
      <stop offset="0" stop-color="#de5427" />
      <stop offset="1" stop-color="#8f2e14" />
    </linearGradient>
  </defs>
  <rect width="64" height="64" rx="16" fill="#f9ecde" />
  <circle cx="32" cy="32" r="25" fill="url(#g)" />
  <path d="M22 33c0-6 4-10 10-10 3 0 5 1 7 3l-3 3c-1-1-2-2-4-2-3 0-5 3-5 6s2 6 5 6c2 0 3-1 4-2l3 3c-2 2-4 3-7 3-6 0-10-4-10-10Zm20-10h4v8l6-8h5l-7 9 8 11h-5l-6-8v8h-4V23Z" fill="#fff6ef" />
</svg>
